<?xml version="1.0" encoding="UTF-8" standalone="no"?>
<!-- Created with Inkscape (http://www.inkscape.org/) -->

<svg
   xmlns:dc="http://purl.org/dc/elements/1.1/"
   xmlns:cc="http://creativecommons.org/ns#"
   xmlns:rdf="http://www.w3.org/1999/02/22-rdf-syntax-ns#"
   xmlns:svg="http://www.w3.org/2000/svg"
   xmlns="http://www.w3.org/2000/svg"
   xmlns:sodipodi="http://sodipodi.sourceforge.net/DTD/sodipodi-0.dtd"
   xmlns:inkscape="http://www.inkscape.org/namespaces/inkscape"
   width="278"
   height="99"
   id="svg2"
   version="1.1"
   inkscape:version="0.48.1 r9760"
   sodipodi:docname="OI_BlankOn.svg">
  <defs
     id="defs4" />
  <sodipodi:namedview
     id="base"
     pagecolor="#ffffff"
     bordercolor="#666666"
     borderopacity="1.0"
     inkscape:pageopacity="0.0"
     inkscape:pageshadow="2"
     inkscape:zoom="1"
     inkscape:cx="116.5"
     inkscape:cy="90.265857"
     inkscape:document-units="px"
     inkscape:current-layer="layer1"
     showgrid="false"
     inkscape:window-width="1366"
     inkscape:window-height="712"
     inkscape:window-x="0"
     inkscape:window-y="0"
     inkscape:window-maximized="1" />
  <metadata
     id="metadata7">
    <rdf:RDF>
      <cc:Work
         rdf:about="">
        <dc:format>image/svg+xml</dc:format>
        <dc:type
           rdf:resource="http://purl.org/dc/dcmitype/StillImage" />
        <dc:title />
      </cc:Work>
    </rdf:RDF>
  </metadata>
  <g
     inkscape:label="Layer 1"
     inkscape:groupmode="layer"
     id="layer1"
     transform="translate(0,-953.36218)">
    <g
       id="g3104"
       transform="matrix(0.64040614,0,0,0.64040614,5.7060343,368.34735)">
      <path
         inkscape:export-ydpi="285.01001"
         inkscape:export-xdpi="285.01001"
         inkscape:export-filename="/home/mdamt/rect4269.png"
         inkscape:connector-curvature="0"
         id="path3497-0"
         d="m 68.0142,990.07275 c 0,11.40025 -9.24174,20.64205 -20.642042,20.64205 -11.400254,0 -20.641993,-9.2418 -20.641993,-20.64205 0,-11.40027 9.241739,-20.64202 20.641993,-20.64202 11.400302,0 20.642042,9.24175 20.642042,20.64202 z"
         style="fill:none;stroke:#000000;stroke-width:10.60067558;stroke-miterlimit:4;stroke-dasharray:none" />
      <path
         inkscape:export-ydpi="285.01001"
         inkscape:export-xdpi="285.01001"
         inkscape:connector-curvature="0"
         id="rect4269-4"
         d="m 77.262899,969.10879 0.484513,0 0,44.30361 -0.484513,0 z"
         style="fill:#aa0000;fill-opacity:1;stroke:#ff0000;stroke-width:8.62159538;stroke-linecap:round;stroke-linejoin:round;stroke-miterlimit:4;stroke-opacity:1" />
      <path
         inkscape:connector-curvature="0"
         id="path4275-9"
         style="font-size:75.31466675px;font-style:normal;font-weight:bold;line-height:125%;letter-spacing:0px;word-spacing:0px;fill:#333333;fill-opacity:1;stroke:none;font-family:Sans;-inkscape-font-specification:Sans Bold"
         d="m 119.32781,969.23977 -8.64546,0 0,16.27379 c 0.11299,3e-5 0.64981,3e-5 1.61045,0 0.96065,-0.0565 1.86468,-0.0847 2.71234,-0.0847 0.90403,-0.0565 2.11891,-0.14123 3.64462,-0.25427 1.5822,-0.16949 2.79707,-0.339 3.64461,-0.50856 0.90415,-0.22599 1.92118,-0.56503 3.05142,-1.01712 1.18651,-0.45201 2.06241,-0.98882 2.62748,-1.61042 1.4691,-1.46913 2.20376,-3.27733 2.20376,-5.4246 0,-3.61635 -2.03428,-5.90485 -6.10272,-6.8655 -1.35611,-0.339 -2.93831,-0.50852 -4.7465,-0.50856 m 0.59331,22.88503 -9.23877,0.50855 0,17.03669 8.30649,0 c 3.67286,0 6.24385,-0.1695 7.71306,-0.5086 1.5256,-0.3391 2.82532,-0.7064 3.89896,-1.1018 1.07352,-0.4521 1.92117,-0.9606 2.54273,-1.5258 1.58221,-1.356 2.37325,-3.1078 2.37325,-5.255 0,-2.82533 -1.41272,-5.05732 -4.23793,-6.69603 -2.76882,-1.63865 -6.55479,-2.458 -11.35779,-2.45801 m -19.66417,-31.70001 21.18988,0 c 5.53755,6e-5 9.83208,0.93242 12.88339,2.79707 2.99481,1.80825 5.00073,3.84247 6.01798,6.10266 0.96053,2.2038 1.41261,4.23802 1.35611,6.10268 0,1.86475 -0.50857,3.78596 -1.52571,5.76364 -0.96064,1.92124 -2.23201,3.53167 -3.8141,4.83128 4.5769,1.86473 7.57171,5.22685 8.98443,10.08636 0.39546,1.52569 0.59331,3.0231 0.59331,4.49226 0,1.4127 -0.16948,2.8253 -0.50857,4.238 -0.33908,1.4127 -1.10188,3.0231 -2.2885,4.8313 -1.13014,1.7517 -2.59924,3.3339 -4.40742,4.7465 -1.8083,1.3562 -4.35104,2.5145 -7.62832,3.4751 -3.22091,0.9041 -6.92213,1.3562 -11.10357,1.3562 l -19.74891,0 0,-58.82305" />
      <path
         inkscape:connector-curvature="0"
         id="path4279-1"
         style="font-size:75.31466675px;font-style:normal;font-weight:bold;line-height:125%;letter-spacing:0px;word-spacing:0px;fill:#333333;fill-opacity:1;stroke:none;font-family:Sans;-inkscape-font-specification:Sans Bold"
         d="m 167.74403,980.25848 c 5.31156,-1.80816 10.19941,-2.71226 14.66344,-2.71229 4.5204,3e-5 8.05203,0.39558 10.59488,1.18662 2.59923,0.79113 4.54865,1.92126 5.84838,3.39038 2.42975,2.65583 3.64462,6.1027 3.64462,10.34064 l 0,26.78397 -7.62832,0 -1.10189,-2.7123 c -3.72947,2.3732 -7.9109,3.5599 -12.54441,3.5599 -6.4417,0 -11.30118,-1.8365 -14.57859,-5.5094 -1.75169,-2.0342 -2.62748,-4.1814 -2.62748,-6.4417 0,-2.0907 0.28248,-3.8424 0.84755,-5.2551 0.56506,-1.4691 1.49746,-2.6557 2.79707,-3.55987 1.29962,-0.96058 2.68409,-1.72341 4.15319,-2.2885 1.46922,-0.62155 3.39039,-1.0736 5.76364,-1.35615 3.84246,-0.45202 8.75845,-0.67805 14.74818,-0.67807 l 0,-0.59332 c -1.1e-4,-3.72938 -1.52571,-6.10264 -4.57701,-7.11979 -1.41272,-0.45201 -3.50349,-0.67804 -6.27221,-0.67807 -2.76883,3e-5 -6.58305,0.59335 -11.44254,1.77994 l -1.61045,0.50856 -2.11891,-8.22165 1.44086,-0.4238 m 24.58026,28.39442 0,-5.9332 -1.01714,0 c -6.21571,0 -10.5385,0.2543 -12.96824,0.7628 -2.37325,0.5086 -3.55988,1.7518 -3.55988,3.7295 0,1.2996 0.7628,2.3167 2.28851,3.0513 1.5822,0.7346 3.87071,1.1019 6.86552,1.1019 2.99481,0 5.79189,-0.9041 8.39123,-2.7123" />
      <path
         inkscape:connector-curvature="0"
         id="path4281-2"
         style="font-size:75.31466675px;font-style:normal;font-weight:bold;line-height:125%;letter-spacing:0px;word-spacing:0px;fill:#333333;fill-opacity:1;stroke:none;font-family:Sans;-inkscape-font-specification:Sans Bold"
         d="m 206.63458,978.39377 7.11975,0 1.35611,2.79707 c 5.31157,-2.42974 10.11467,-3.64462 14.4091,-3.64465 7.00675,3e-5 11.52728,2.59932 13.56155,7.79785 1.01703,2.59932 1.55384,5.84842 1.61034,9.74733 l 0,24.15643 -10.2558,0 0,-23.98692 c -1.1e-4,-2.88178 -0.62167,-4.94426 -1.86467,-6.18742 -1.29974,-1.35613 -3.36226,-2.03419 -6.18747,-2.03423 -2.76883,4e-5 -5.96148,0.76287 -9.57786,2.2885 l 0,29.92007 -10.17105,0 0,-40.85403" />
      <path
         inkscape:connector-curvature="0"
         id="path4283-2"
         style="font-size:75.31466675px;font-style:normal;font-weight:bold;line-height:125%;letter-spacing:0px;word-spacing:0px;fill:#333333;fill-opacity:1;stroke:none;font-family:Sans;-inkscape-font-specification:Sans Bold"
         d="m 259.22027,994.75233 17.63,-17.20614 12.20534,0 -20.17274,18.73181 20.85079,22.9698 -12.54442,0 -17.96897,-20.34226 0,20.34226 -10.17116,0 0,-58.82301 10.17116,0 0,34.32754" />
      <path
         inkscape:connector-curvature="0"
         id="path4285-2"
         style="font-size:75.31466675px;font-style:normal;font-weight:bold;line-height:125%;letter-spacing:0px;word-spacing:0px;fill:#333333;fill-opacity:1;stroke:none;font-family:Sans;-inkscape-font-specification:Sans Bold"
         d="m 316.88829,964.33309 c 5.42455,6e-5 10.31229,1.18669 14.66332,3.5599 4.35092,2.3168 7.7978,5.73542 10.34066,10.25587 2.59922,4.52054 3.89884,9.71911 3.89895,15.59573 -1.1e-4,9.04101 -2.76894,16.41511 -8.30648,22.12221 -5.48117,5.6506 -12.45968,8.4759 -20.93554,8.4759 -7.51533,0 -14.09837,-2.458 -19.74891,-7.3741 -2.71233,-2.3732 -4.88785,-5.5093 -6.52643,-9.4082 -1.63871,-3.899 -2.45811,-8.24993 -2.45811,-13.05298 0,-9.04096 2.74058,-16.33025 8.22174,-21.86791 5.53755,-5.53756 12.48781,-8.30636 20.8508,-8.30642 m 6.18735,10.76443 c -2.14727,-0.79103 -4.35092,-1.18658 -6.61118,-1.18662 -2.20376,4e-5 -4.35103,0.39559 -6.44169,1.18662 -2.09078,0.79114 -4.01196,1.94952 -5.76365,3.47514 -1.75169,1.52572 -3.1644,3.58819 -4.23804,6.18743 -1.01703,2.59933 -1.5256,5.5659 -1.5256,8.89973 0,6.38528 1.77994,11.52728 5.33982,15.42618 3.55988,3.8425 7.99565,5.7637 13.30721,5.7637 4.57702,0 8.61721,-1.5822 12.12059,-4.7466 1.75169,-1.5821 3.1643,-3.7294 4.23793,-6.4417 1.07364,-2.7122 1.61045,-5.79183 1.61045,-9.23874 0,-3.50335 -0.56506,-6.6112 -1.69519,-9.32353 -1.07363,-2.71226 -2.54285,-4.85949 -4.40741,-6.44171 -1.8083,-1.58213 -3.78597,-2.76876 -5.93324,-3.5599" />
      <path
         inkscape:connector-curvature="0"
         id="path4287-4"
         style="font-size:75.31466675px;font-style:normal;font-weight:bold;line-height:125%;letter-spacing:0px;word-spacing:0px;fill:#333333;fill-opacity:1;stroke:none;font-family:Sans;-inkscape-font-specification:Sans Bold"
         d="m 348.51324,978.39377 7.11986,0 1.35611,2.79707 c 5.31156,-2.42974 10.11454,-3.64462 14.40911,-3.64465 7.00676,3e-5 11.52726,2.59932 13.56141,7.79785 1.01717,2.59932 1.55395,5.84842 1.61045,9.74733 l 0,24.15643 -10.25589,0 0,-23.98692 c 0,-2.88178 -0.62155,-4.94426 -1.8647,-6.18742 -1.2996,-1.35613 -3.36212,-2.03419 -6.18735,-2.03423 -2.76881,4e-5 -5.96147,0.76287 -9.57784,2.2885 l 0,29.92007 -10.17116,0 0,-40.85403" />
      <rect
         ry="1.3444229"
         y="960.38165"
         x="149.40475"
         height="59.154606"
         width="11.269748"
         id="rect2999-6"
         style="fill:#333333;fill-opacity:1;stroke:none" />
    </g>
  </g>
</svg>
